<svg xmlns="http://www.w3.org/2000/svg" viewBox="0 0 256 256">
  <defs>
    <linearGradient id="blueGrad" x1="0%" y1="0%" x2="100%" y2="100%">
      <stop offset="0%" style="stop-color:#4A90E2;stop-opacity:1" />
      <stop offset="100%" style="stop-color:#1E5BA8;stop-opacity:1" />
    </linearGradient>
  </defs>
  <rect width="256" height="256" fill="#ffffff" opacity="0"/>
  <path d="M180 200c-30 0-58-12-79-33s-33-49-33-79c0-8 6-14 14-14h28c7 0 13 5 14 12l4 24c1 6-1 12-6 15l-16 12c8 15 20 27 35 35l12-16c3-5 9-7 15-6l24 4c7 1 12 7 12 14v28c0 8-6 14-14 14z" fill="url(#blueGrad)" stroke="url(#blueGrad)" stroke-width="2" stroke-linejoin="round"/>
  <circle cx="200" cy="80" r="6" fill="#4A90E2"/>
  <circle cx="220" cy="60" r="5" fill="#4A90E2"/>
  <circle cx="215" cy="90" r="4" fill="#4A90E2"/>
</svg>